<svg width="414" height="210" viewBox="0 0 414 210" fill="none" xmlns="http://www.w3.org/2000/svg">
<rect y="156" width="414" height="55" fill="url(#paint0_linear_147_68)"/>
<ellipse cx="-3" cy="284.5" rx="225" ry="284.5" fill="url(#paint1_linear_147_68)"/>
<path d="M158.388 196.718L149.625 189.124C149.229 188.782 148.693 188.591 148.13 188.591H146.698C149.124 185.903 150.565 182.521 150.565 178.842C150.565 170.091 142.382 163 132.283 163C122.183 163 114 170.091 114 178.842C114 187.593 122.183 194.684 132.283 194.684C136.528 194.684 140.431 193.435 143.533 191.333V192.575C143.533 193.062 143.753 193.527 144.149 193.869L152.912 201.463C153.738 202.179 155.074 202.179 155.892 201.463L158.379 199.308C159.205 198.592 159.205 197.434 158.388 196.718ZM132.283 188.591C126.068 188.591 121.032 184.235 121.032 178.842C121.032 173.457 126.059 169.093 132.283 169.093C138.497 169.093 143.533 173.45 143.533 178.842C143.533 184.227 138.506 188.591 132.283 188.591Z" fill="black"/>
<path d="M63.9034 173.118L49.5006 186.338V200.607C49.5006 200.976 49.6323 201.331 49.8667 201.592C50.1011 201.853 50.419 202 50.7505 202L59.5045 201.975C59.8349 201.973 60.1512 201.825 60.3843 201.564C60.6173 201.303 60.7482 200.95 60.7482 200.582V192.249C60.7482 191.879 60.8798 191.525 61.1143 191.264C61.3487 191.003 61.6666 190.856 61.9981 190.856H66.9977C67.3292 190.856 67.6471 191.003 67.8815 191.264C68.1159 191.525 68.2476 191.879 68.2476 192.249V200.576C68.2471 200.759 68.279 200.941 68.3416 201.11C68.4042 201.28 68.4962 201.434 68.6123 201.563C68.7284 201.693 68.8664 201.796 69.0183 201.867C69.1702 201.937 69.333 201.973 69.4975 201.973L78.2484 202C78.5799 202 78.8978 201.853 79.1322 201.592C79.3666 201.331 79.4983 200.976 79.4983 200.607V186.329L65.0986 173.118C64.9293 172.966 64.7184 172.883 64.501 172.883C64.2836 172.883 64.0727 172.966 63.9034 173.118ZM86.654 182.103L80.1232 176.104V164.045C80.1232 163.768 80.0245 163.502 79.8487 163.306C79.6729 163.11 79.4344 163 79.1858 163H74.8111C74.5625 163 74.3241 163.11 74.1483 163.306C73.9725 163.502 73.8737 163.768 73.8737 164.045V170.366L66.8797 163.953C66.2085 163.338 65.3663 163.001 64.4971 163.001C63.6279 163.001 62.7857 163.338 62.1145 163.953L42.3402 182.103C42.2453 182.191 42.1667 182.298 42.1091 182.42C42.0514 182.541 42.0158 182.674 42.0042 182.81C41.9926 182.947 42.0052 183.085 42.0414 183.216C42.0777 183.347 42.1367 183.469 42.2152 183.575L44.2073 186.274C44.2856 186.38 44.3819 186.468 44.4907 186.532C44.5995 186.597 44.7186 186.637 44.8413 186.65C44.964 186.663 45.0879 186.649 45.2057 186.609C45.3236 186.569 45.4332 186.503 45.5282 186.416L63.9034 169.548C64.0727 169.396 64.2836 169.313 64.501 169.313C64.7184 169.313 64.9293 169.396 65.0986 169.548L83.4745 186.416C83.5694 186.503 83.6788 186.569 83.7965 186.609C83.9142 186.65 84.0379 186.664 84.1605 186.651C84.2831 186.638 84.4023 186.598 84.5111 186.534C84.6199 186.47 84.7163 186.382 84.7948 186.276L86.7868 183.577C86.8652 183.471 86.924 183.348 86.9598 183.217C86.9956 183.085 87.0077 182.947 86.9953 182.81C86.983 182.673 86.9465 182.54 86.8879 182.419C86.8293 182.297 86.7498 182.19 86.654 182.103Z" fill="black"/>
<path d="M226.179 163H190.821C188.16 163 186 164.872 186 167.179V197.821C186 200.128 188.16 202 190.821 202H226.179C228.84 202 231 200.128 231 197.821V167.179C231 164.872 228.84 163 226.179 163ZM222.964 184.938C222.964 185.512 222.422 185.982 221.759 185.982H212.518V193.991C212.518 194.566 211.975 195.036 211.312 195.036H205.688C205.025 195.036 204.482 194.566 204.482 193.991V185.982H195.241C194.578 185.982 194.036 185.512 194.036 184.938V180.062C194.036 179.488 194.578 179.018 195.241 179.018H204.482V171.009C204.482 170.434 205.025 169.964 205.688 169.964H211.312C211.975 169.964 212.518 170.434 212.518 171.009V179.018H221.759C222.422 179.018 222.964 179.488 222.964 180.062V184.938Z" fill="white"/>
<path d="M279.5 202C283.048 202 285.926 199.818 285.926 197.125H273.074C273.074 199.818 275.952 202 279.5 202ZM301.135 190.596C299.194 189.015 295.563 186.636 295.563 178.844C295.563 172.925 290.091 168.187 282.712 167.025V165.438C282.712 164.092 281.274 163 279.5 163C277.726 163 276.288 164.092 276.288 165.438V167.025C268.909 168.187 263.437 172.925 263.437 178.844C263.437 186.636 259.806 189.015 257.865 190.596C257.262 191.088 256.995 191.675 257 192.25C257.011 193.499 258.304 194.688 260.224 194.688H298.776C300.696 194.688 301.99 193.499 302 192.25C302.005 191.675 301.738 191.087 301.135 190.596Z" fill="white"/>
<path d="M330.607 171.163H372.393C373.281 171.163 374 170.451 374 169.571V165.592C374 164.713 373.281 164 372.393 164H330.607C329.719 164 329 164.713 329 165.592V169.571C329 170.451 329.719 171.163 330.607 171.163ZM330.607 187.082H372.393C373.281 187.082 374 186.369 374 185.49V181.51C374 180.631 373.281 179.918 372.393 179.918H330.607C329.719 179.918 329 180.631 329 181.51V185.49C329 186.369 329.719 187.082 330.607 187.082ZM330.607 203H372.393C373.281 203 374 202.287 374 201.408V197.429C374 196.549 373.281 195.837 372.393 195.837H330.607C329.719 195.837 329 196.549 329 197.429V201.408C329 202.287 329.719 203 330.607 203Z" fill="black"/>
<defs>
<linearGradient id="paint0_linear_147_68" x1="0" y1="183.5" x2="414" y2="183.5" gradientUnits="userSpaceOnUse">
<stop/>
<stop offset="1" stop-color="#434343"/>
</linearGradient>
<linearGradient id="paint1_linear_147_68" x1="-3" y1="0" x2="-3" y2="569" gradientUnits="userSpaceOnUse">
<stop stop-color="#FF8008"/>
<stop offset="1" stop-color="#FFC837"/>
</linearGradient>
</defs>
</svg>

